<mxfile host="www.draw.io" modified="2019-12-09T12:37:18.256Z" agent="Mozilla/5.0 (Windows NT 10.0; WOW64) AppleWebKit/537.36 (KHTML, like Gecko) Chrome/74.0.3729.169 Safari/537.36" etag="nNv9IDenBi733h7oDd5U" version="12.3.8" type="github" pages="1">
  <diagram id="GRlnLT7_2dkKa7F-6Pxh" name="Page-1">
    <mxGraphModel dx="924" dy="822" grid="0" gridSize="10" guides="1" tooltips="1" connect="1" arrows="1" fold="1" page="1" pageScale="1" pageWidth="3300" pageHeight="4681" math="0" shadow="0">
      <root>
        <mxCell id="0"/>
        <mxCell id="1" parent="0"/>
        <mxCell id="qPi3jKJnH22krAegCtyx-84" value="" style="rounded=0;whiteSpace=wrap;html=1;fillColor=none;fontSize=15;align=left;fontColor=none;labelBackgroundColor=none;noLabel=1;" vertex="1" parent="1">
          <mxGeometry x="1234" y="2051" width="232" height="371" as="geometry"/>
        </mxCell>
        <mxCell id="qPi3jKJnH22krAegCtyx-78" value="" style="rounded=0;whiteSpace=wrap;html=1;fillColor=none;fontSize=15;align=left;fontColor=none;labelBackgroundColor=none;noLabel=1;" vertex="1" parent="1">
          <mxGeometry x="878" y="2051" width="269" height="528" as="geometry"/>
        </mxCell>
        <mxCell id="qPi3jKJnH22krAegCtyx-14" style="edgeStyle=none;rounded=0;orthogonalLoop=1;jettySize=auto;html=1;exitX=1;exitY=0.5;exitDx=0;exitDy=0;" edge="1" parent="1">
          <mxGeometry relative="1" as="geometry">
            <mxPoint x="1334.5" y="1286.5" as="sourcePoint"/>
            <mxPoint x="1179.5000000000005" y="1286.5" as="targetPoint"/>
          </mxGeometry>
        </mxCell>
        <mxCell id="qPi3jKJnH22krAegCtyx-15" value="选择完第二个单词" style="text;html=1;align=center;verticalAlign=middle;resizable=0;points=[];;labelBackgroundColor=#ffffff;" vertex="1" connectable="0" parent="qPi3jKJnH22krAegCtyx-14">
          <mxGeometry x="0.3468" y="2" relative="1" as="geometry">
            <mxPoint x="30.5" y="7.5" as="offset"/>
          </mxGeometry>
        </mxCell>
        <mxCell id="ZRmIogg5ReTRxEhvaVvf-26" style="edgeStyle=none;rounded=0;orthogonalLoop=1;jettySize=auto;html=1;entryX=0.5;entryY=0;entryDx=0;entryDy=0;" parent="1" source="ZRmIogg5ReTRxEhvaVvf-13" target="ZRmIogg5ReTRxEhvaVvf-12" edge="1">
          <mxGeometry relative="1" as="geometry">
            <mxPoint x="895" y="1190" as="targetPoint"/>
          </mxGeometry>
        </mxCell>
        <mxCell id="ZRmIogg5ReTRxEhvaVvf-28" value="退出（）" style="text;html=1;align=center;verticalAlign=middle;resizable=0;points=[];;labelBackgroundColor=#ffffff;" parent="ZRmIogg5ReTRxEhvaVvf-26" vertex="1" connectable="0">
          <mxGeometry x="0.2905" y="1" relative="1" as="geometry">
            <mxPoint as="offset"/>
          </mxGeometry>
        </mxCell>
        <mxCell id="ZRmIogg5ReTRxEhvaVvf-33" style="edgeStyle=none;rounded=0;orthogonalLoop=1;jettySize=auto;html=1;exitX=0.5;exitY=1;exitDx=0;exitDy=0;entryX=0.5;entryY=0;entryDx=0;entryDy=0;" parent="1" source="ZRmIogg5ReTRxEhvaVvf-12" target="ZRmIogg5ReTRxEhvaVvf-32" edge="1">
          <mxGeometry relative="1" as="geometry"/>
        </mxCell>
        <mxCell id="ZRmIogg5ReTRxEhvaVvf-13" value="使用状态" style="rounded=1;whiteSpace=wrap;html=1;absoluteArcSize=1;arcSize=14;strokeWidth=2;fillColor=none;verticalAlign=top;" parent="1" vertex="1">
          <mxGeometry x="600" y="730" width="590" height="370" as="geometry"/>
        </mxCell>
        <mxCell id="ZRmIogg5ReTRxEhvaVvf-3" value="" style="rounded=1;whiteSpace=wrap;html=1;absoluteArcSize=1;arcSize=14;strokeWidth=2;fillColor=none;" parent="1" vertex="1">
          <mxGeometry x="170" y="1530" width="140" height="70" as="geometry"/>
        </mxCell>
        <mxCell id="ZRmIogg5ReTRxEhvaVvf-5" value="" style="ellipse;html=1;shape=endState;fillColor=#000000;strokeColor=#ff0000;" parent="1" vertex="1">
          <mxGeometry x="1140" y="1000" width="30" height="30" as="geometry"/>
        </mxCell>
        <mxCell id="ZRmIogg5ReTRxEhvaVvf-6" value="" style="ellipse;html=1;shape=startState;fillColor=#000000;strokeColor=#ff0000;" parent="1" vertex="1">
          <mxGeometry x="620" y="820" width="30" height="30" as="geometry"/>
        </mxCell>
        <mxCell id="ZRmIogg5ReTRxEhvaVvf-7" value="" style="html=1;verticalAlign=bottom;endArrow=open;endSize=8;strokeColor=#ff0000;entryX=0;entryY=0.5;entryDx=0;entryDy=0;" parent="1" source="ZRmIogg5ReTRxEhvaVvf-6" target="ZRmIogg5ReTRxEhvaVvf-16" edge="1">
          <mxGeometry relative="1" as="geometry">
            <mxPoint x="790" y="505" as="targetPoint"/>
          </mxGeometry>
        </mxCell>
        <mxCell id="ZRmIogg5ReTRxEhvaVvf-9" value="" style="rounded=1;whiteSpace=wrap;html=1;absoluteArcSize=1;arcSize=14;strokeWidth=2;fillColor=none;" parent="1" vertex="1">
          <mxGeometry x="180" y="1540" width="140" height="70" as="geometry"/>
        </mxCell>
        <mxCell id="qPi3jKJnH22krAegCtyx-66" style="edgeStyle=none;rounded=0;orthogonalLoop=1;jettySize=auto;html=1;exitX=1;exitY=0.5;exitDx=0;exitDy=0;entryX=-0.178;entryY=0.376;entryDx=0;entryDy=0;entryPerimeter=0;fontSize=15;" edge="1" parent="1" source="ZRmIogg5ReTRxEhvaVvf-11" target="qPi3jKJnH22krAegCtyx-53">
          <mxGeometry relative="1" as="geometry">
            <mxPoint x="1526.7232142857142" y="1648.578125" as="targetPoint"/>
          </mxGeometry>
        </mxCell>
        <mxCell id="ZRmIogg5ReTRxEhvaVvf-11" value="缩放状态" style="rounded=1;whiteSpace=wrap;html=1;absoluteArcSize=1;arcSize=14;strokeWidth=2;fillColor=none;horizontal=1;verticalAlign=top;fontSize=15;" parent="1" vertex="1">
          <mxGeometry x="1256" y="1550" width="142" height="85" as="geometry"/>
        </mxCell>
        <mxCell id="ZRmIogg5ReTRxEhvaVvf-27" style="edgeStyle=none;rounded=0;orthogonalLoop=1;jettySize=auto;html=1;" parent="1" source="ZRmIogg5ReTRxEhvaVvf-12" target="ZRmIogg5ReTRxEhvaVvf-8" edge="1">
          <mxGeometry relative="1" as="geometry">
            <Array as="points">
              <mxPoint x="725" y="1235"/>
            </Array>
          </mxGeometry>
        </mxCell>
        <mxCell id="ZRmIogg5ReTRxEhvaVvf-12" value="未使用状态" style="rounded=1;whiteSpace=wrap;html=1;absoluteArcSize=1;arcSize=14;strokeWidth=2;fillColor=none;" parent="1" vertex="1">
          <mxGeometry x="830" y="1200" width="140" height="70" as="geometry"/>
        </mxCell>
        <mxCell id="ZRmIogg5ReTRxEhvaVvf-19" style="edgeStyle=none;rounded=0;orthogonalLoop=1;jettySize=auto;html=1;entryX=0.5;entryY=1;entryDx=0;entryDy=0;exitX=0;exitY=0.5;exitDx=0;exitDy=0;" parent="1" source="ZRmIogg5ReTRxEhvaVvf-14" target="ZRmIogg5ReTRxEhvaVvf-16" edge="1">
          <mxGeometry relative="1" as="geometry"/>
        </mxCell>
        <mxCell id="ZRmIogg5ReTRxEhvaVvf-22" value="再次点击单词/显示（）" style="text;html=1;align=center;verticalAlign=middle;resizable=0;points=[];;labelBackgroundColor=#ffffff;" parent="ZRmIogg5ReTRxEhvaVvf-19" vertex="1" connectable="0">
          <mxGeometry x="-0.2771" relative="1" as="geometry">
            <mxPoint x="-12" y="-12.5" as="offset"/>
          </mxGeometry>
        </mxCell>
        <mxCell id="ZRmIogg5ReTRxEhvaVvf-24" style="edgeStyle=none;rounded=0;orthogonalLoop=1;jettySize=auto;html=1;exitX=1;exitY=0.5;exitDx=0;exitDy=0;entryX=0;entryY=0.5;entryDx=0;entryDy=0;" parent="1" source="ZRmIogg5ReTRxEhvaVvf-14" target="ZRmIogg5ReTRxEhvaVvf-5" edge="1">
          <mxGeometry relative="1" as="geometry"/>
        </mxCell>
        <mxCell id="ZRmIogg5ReTRxEhvaVvf-14" value="评分" style="rounded=1;whiteSpace=wrap;html=1;absoluteArcSize=1;arcSize=14;strokeWidth=2;fillColor=none;" parent="1" vertex="1">
          <mxGeometry x="930" y="980" width="140" height="70" as="geometry"/>
        </mxCell>
        <mxCell id="ZRmIogg5ReTRxEhvaVvf-18" style="edgeStyle=none;rounded=0;orthogonalLoop=1;jettySize=auto;html=1;entryX=0.5;entryY=0;entryDx=0;entryDy=0;" parent="1" source="ZRmIogg5ReTRxEhvaVvf-15" target="ZRmIogg5ReTRxEhvaVvf-14" edge="1">
          <mxGeometry relative="1" as="geometry"/>
        </mxCell>
        <mxCell id="ZRmIogg5ReTRxEhvaVvf-21" value="点击评分or After（录音时间&amp;gt;10s）/显示（）" style="text;html=1;align=center;verticalAlign=middle;resizable=0;points=[];;labelBackgroundColor=#ffffff;" parent="ZRmIogg5ReTRxEhvaVvf-18" vertex="1" connectable="0">
          <mxGeometry x="0.1957" y="-3" relative="1" as="geometry">
            <mxPoint x="3" y="-11" as="offset"/>
          </mxGeometry>
        </mxCell>
        <mxCell id="ZRmIogg5ReTRxEhvaVvf-15" value="录音" style="rounded=1;whiteSpace=wrap;html=1;absoluteArcSize=1;arcSize=14;strokeWidth=2;fillColor=none;" parent="1" vertex="1">
          <mxGeometry x="1030" y="800" width="140" height="70" as="geometry"/>
        </mxCell>
        <mxCell id="ZRmIogg5ReTRxEhvaVvf-17" style="edgeStyle=none;rounded=0;orthogonalLoop=1;jettySize=auto;html=1;entryX=0;entryY=0.5;entryDx=0;entryDy=0;" parent="1" source="ZRmIogg5ReTRxEhvaVvf-16" target="ZRmIogg5ReTRxEhvaVvf-15" edge="1">
          <mxGeometry relative="1" as="geometry"/>
        </mxCell>
        <mxCell id="ZRmIogg5ReTRxEhvaVvf-20" value="点击录音/显示（）" style="text;html=1;align=center;verticalAlign=middle;resizable=0;points=[];;labelBackgroundColor=#ffffff;" parent="ZRmIogg5ReTRxEhvaVvf-17" vertex="1" connectable="0">
          <mxGeometry x="0.3337" relative="1" as="geometry">
            <mxPoint x="-15" y="-15" as="offset"/>
          </mxGeometry>
        </mxCell>
        <mxCell id="ZRmIogg5ReTRxEhvaVvf-16" value="单词选择" style="rounded=1;whiteSpace=wrap;html=1;absoluteArcSize=1;arcSize=14;strokeWidth=2;fillColor=none;" parent="1" vertex="1">
          <mxGeometry x="700" y="800" width="140" height="70" as="geometry"/>
        </mxCell>
        <mxCell id="ZRmIogg5ReTRxEhvaVvf-8" value="H" style="ellipse;html=1;shape=startState;fillColor=none;strokeColor=#ff0000;" parent="1" vertex="1">
          <mxGeometry x="710" y="960" width="30" height="30" as="geometry"/>
        </mxCell>
        <mxCell id="ZRmIogg5ReTRxEhvaVvf-29" value="再次点击学习/&lt;br&gt;恢复历史（）" style="text;html=1;align=center;verticalAlign=middle;resizable=0;points=[];;autosize=1;" parent="1" vertex="1">
          <mxGeometry x="688" y="1151" width="104" height="32" as="geometry"/>
        </mxCell>
        <mxCell id="ZRmIogg5ReTRxEhvaVvf-30" value="" style="ellipse;html=1;shape=startState;fillColor=#000000;strokeColor=#ff0000;" parent="1" vertex="1">
          <mxGeometry x="478.5" y="885" width="30" height="30" as="geometry"/>
        </mxCell>
        <mxCell id="ZRmIogg5ReTRxEhvaVvf-31" value="" style="html=1;verticalAlign=bottom;endArrow=open;endSize=8;strokeColor=#ff0000;entryX=-0.001;entryY=0.462;entryDx=0;entryDy=0;entryPerimeter=0;" parent="1" source="ZRmIogg5ReTRxEhvaVvf-30" target="ZRmIogg5ReTRxEhvaVvf-13" edge="1">
          <mxGeometry relative="1" as="geometry">
            <mxPoint x="615" y="1380" as="targetPoint"/>
          </mxGeometry>
        </mxCell>
        <mxCell id="ZRmIogg5ReTRxEhvaVvf-32" value="" style="ellipse;html=1;shape=endState;fillColor=#000000;strokeColor=#ff0000;" parent="1" vertex="1">
          <mxGeometry x="885" y="1330" width="30" height="30" as="geometry"/>
        </mxCell>
        <mxCell id="qPi3jKJnH22krAegCtyx-3" value="点击学习" style="text;html=1;align=center;verticalAlign=middle;resizable=0;points=[];;autosize=1;" vertex="1" parent="1">
          <mxGeometry x="514.5" y="882" width="70" height="18" as="geometry"/>
        </mxCell>
        <mxCell id="qPi3jKJnH22krAegCtyx-9" style="edgeStyle=none;rounded=0;orthogonalLoop=1;jettySize=auto;html=1;exitX=1;exitY=0.5;exitDx=0;exitDy=0;fontSize=15;" edge="1" parent="1" source="qPi3jKJnH22krAegCtyx-4" target="qPi3jKJnH22krAegCtyx-5">
          <mxGeometry relative="1" as="geometry"/>
        </mxCell>
        <mxCell id="qPi3jKJnH22krAegCtyx-4" value="" style="ellipse;html=1;shape=startState;fillColor=#000000;strokeColor=#ff0000;fontSize=15;" vertex="1" parent="1">
          <mxGeometry x="830" y="1659" width="26" height="30" as="geometry"/>
        </mxCell>
        <mxCell id="qPi3jKJnH22krAegCtyx-5" value="正常状态" style="rounded=1;whiteSpace=wrap;html=1;absoluteArcSize=1;arcSize=14;strokeWidth=2;fillColor=none;horizontal=1;verticalAlign=top;fontSize=15;" vertex="1" parent="1">
          <mxGeometry x="911" y="1633" width="141" height="82" as="geometry"/>
        </mxCell>
        <mxCell id="qPi3jKJnH22krAegCtyx-12" style="edgeStyle=none;rounded=0;orthogonalLoop=1;jettySize=auto;html=1;exitX=1;exitY=0.5;exitDx=0;exitDy=0;entryX=0.053;entryY=0.489;entryDx=0;entryDy=0;entryPerimeter=0;fontSize=15;" edge="1" parent="1" target="qPi3jKJnH22krAegCtyx-32">
          <mxGeometry relative="1" as="geometry">
            <mxPoint x="1051.0000000000005" y="1683" as="sourcePoint"/>
            <mxPoint x="1149" y="1683" as="targetPoint"/>
          </mxGeometry>
        </mxCell>
        <mxCell id="qPi3jKJnH22krAegCtyx-13" value="选择完单词" style="text;html=1;align=center;verticalAlign=middle;resizable=0;points=[];;labelBackgroundColor=#ffffff;fontSize=15;" vertex="1" connectable="0" parent="qPi3jKJnH22krAegCtyx-12">
          <mxGeometry x="0.3468" y="2" relative="1" as="geometry">
            <mxPoint x="-18.5" y="-16.5" as="offset"/>
          </mxGeometry>
        </mxCell>
        <mxCell id="qPi3jKJnH22krAegCtyx-17" value="" style="rounded=1;whiteSpace=wrap;html=1;absoluteArcSize=1;arcSize=14;strokeWidth=2;fillColor=none;" vertex="1" parent="1">
          <mxGeometry x="190" y="1550" width="140" height="70" as="geometry"/>
        </mxCell>
        <mxCell id="qPi3jKJnH22krAegCtyx-18" value="" style="rounded=1;whiteSpace=wrap;html=1;absoluteArcSize=1;arcSize=14;strokeWidth=2;fillColor=none;" vertex="1" parent="1">
          <mxGeometry x="200" y="1560" width="140" height="70" as="geometry"/>
        </mxCell>
        <mxCell id="qPi3jKJnH22krAegCtyx-19" value="" style="rounded=1;whiteSpace=wrap;html=1;absoluteArcSize=1;arcSize=14;strokeWidth=2;fillColor=none;" vertex="1" parent="1">
          <mxGeometry x="210" y="1570" width="140" height="70" as="geometry"/>
        </mxCell>
        <mxCell id="qPi3jKJnH22krAegCtyx-20" value="" style="rounded=1;whiteSpace=wrap;html=1;absoluteArcSize=1;arcSize=14;strokeWidth=2;fillColor=none;" vertex="1" parent="1">
          <mxGeometry x="220" y="1580" width="140" height="70" as="geometry"/>
        </mxCell>
        <mxCell id="qPi3jKJnH22krAegCtyx-21" value="" style="rounded=1;whiteSpace=wrap;html=1;absoluteArcSize=1;arcSize=14;strokeWidth=2;fillColor=none;" vertex="1" parent="1">
          <mxGeometry x="230" y="1590" width="140" height="70" as="geometry"/>
        </mxCell>
        <mxCell id="qPi3jKJnH22krAegCtyx-105" style="edgeStyle=none;rounded=0;orthogonalLoop=1;jettySize=auto;html=1;exitX=0.5;exitY=1;exitDx=0;exitDy=0;endArrow=classic;endFill=1;fontSize=15;fontColor=none;" edge="1" parent="1" source="qPi3jKJnH22krAegCtyx-22" target="qPi3jKJnH22krAegCtyx-104">
          <mxGeometry relative="1" as="geometry"/>
        </mxCell>
        <mxCell id="qPi3jKJnH22krAegCtyx-22" value="开启" style="rounded=1;whiteSpace=wrap;html=1;absoluteArcSize=1;arcSize=14;strokeWidth=2;fillColor=none;fontSize=15;" vertex="1" parent="1">
          <mxGeometry x="1281" y="2095.5" width="95" height="48" as="geometry"/>
        </mxCell>
        <mxCell id="qPi3jKJnH22krAegCtyx-85" style="edgeStyle=none;rounded=0;orthogonalLoop=1;jettySize=auto;html=1;exitX=0.5;exitY=1;exitDx=0;exitDy=0;entryX=0.5;entryY=0;entryDx=0;entryDy=0;fontSize=15;fontColor=none;" edge="1" parent="1" source="qPi3jKJnH22krAegCtyx-23" target="qPi3jKJnH22krAegCtyx-83">
          <mxGeometry relative="1" as="geometry"/>
        </mxCell>
        <mxCell id="qPi3jKJnH22krAegCtyx-86" value="点击AR识别" style="text;html=1;align=center;verticalAlign=middle;resizable=0;points=[];;labelBackgroundColor=#ffffff;fontSize=15;fontColor=none;" vertex="1" connectable="0" parent="qPi3jKJnH22krAegCtyx-85">
          <mxGeometry x="-0.3771" y="-2" relative="1" as="geometry">
            <mxPoint x="43.5" y="3" as="offset"/>
          </mxGeometry>
        </mxCell>
        <mxCell id="qPi3jKJnH22krAegCtyx-23" value="显示主页" style="rounded=1;whiteSpace=wrap;html=1;absoluteArcSize=1;arcSize=14;strokeWidth=2;fillColor=none;fontSize=15;" vertex="1" parent="1">
          <mxGeometry x="942" y="2092" width="114" height="49" as="geometry"/>
        </mxCell>
        <mxCell id="qPi3jKJnH22krAegCtyx-24" value="组合状态" style="rounded=1;whiteSpace=wrap;html=1;absoluteArcSize=1;arcSize=14;strokeWidth=2;fillColor=none;verticalAlign=top;fontSize=15;" vertex="1" parent="1">
          <mxGeometry x="1690" y="1633.5" width="174" height="83" as="geometry"/>
        </mxCell>
        <mxCell id="qPi3jKJnH22krAegCtyx-29" value="Text" style="text;html=1;strokeColor=none;fillColor=none;align=center;verticalAlign=middle;whiteSpace=wrap;rounded=0;" vertex="1" parent="1">
          <mxGeometry x="602" y="1713" width="40" height="20" as="geometry"/>
        </mxCell>
        <mxCell id="qPi3jKJnH22krAegCtyx-31" value="" style="html=1;points=[];perimeter=orthogonalPerimeter;" vertex="1" parent="1">
          <mxGeometry x="602" y="1754" width="10" height="80" as="geometry"/>
        </mxCell>
        <mxCell id="qPi3jKJnH22krAegCtyx-51" style="edgeStyle=none;rounded=0;orthogonalLoop=1;jettySize=auto;html=1;entryX=0;entryY=0.5;entryDx=0;entryDy=0;exitX=0.5;exitY=0.362;exitDx=0;exitDy=0;exitPerimeter=0;fontSize=15;" edge="1" parent="1" source="qPi3jKJnH22krAegCtyx-32" target="ZRmIogg5ReTRxEhvaVvf-11">
          <mxGeometry relative="1" as="geometry"/>
        </mxCell>
        <mxCell id="qPi3jKJnH22krAegCtyx-52" style="edgeStyle=none;rounded=0;orthogonalLoop=1;jettySize=auto;html=1;entryX=0;entryY=0.5;entryDx=0;entryDy=0;exitX=-0.29;exitY=0.502;exitDx=0;exitDy=0;exitPerimeter=0;fontSize=15;" edge="1" parent="1" source="qPi3jKJnH22krAegCtyx-32" target="qPi3jKJnH22krAegCtyx-33">
          <mxGeometry relative="1" as="geometry"/>
        </mxCell>
        <mxCell id="qPi3jKJnH22krAegCtyx-32" value="" style="html=1;points=[];perimeter=orthogonalPerimeter;fillColor=#000000;fontSize=15;" vertex="1" parent="1">
          <mxGeometry x="1157.5" y="1642" width="10" height="80" as="geometry"/>
        </mxCell>
        <mxCell id="qPi3jKJnH22krAegCtyx-64" style="edgeStyle=none;rounded=0;orthogonalLoop=1;jettySize=auto;html=1;exitX=0.25;exitY=0;exitDx=0;exitDy=0;entryX=0.843;entryY=-0.019;entryDx=0;entryDy=0;entryPerimeter=0;fontSize=15;" edge="1" parent="1" source="qPi3jKJnH22krAegCtyx-33" target="qPi3jKJnH22krAegCtyx-33">
          <mxGeometry relative="1" as="geometry">
            <Array as="points">
              <mxPoint x="1351" y="1694"/>
            </Array>
          </mxGeometry>
        </mxCell>
        <mxCell id="qPi3jKJnH22krAegCtyx-65" value="用户选择另一个单词/再次查找（）" style="text;html=1;align=center;verticalAlign=middle;resizable=0;points=[];;labelBackgroundColor=#ffffff;fontSize=15;" vertex="1" connectable="0" parent="qPi3jKJnH22krAegCtyx-64">
          <mxGeometry x="0.504" relative="1" as="geometry">
            <mxPoint x="-11.5" y="-29.5" as="offset"/>
          </mxGeometry>
        </mxCell>
        <mxCell id="qPi3jKJnH22krAegCtyx-67" style="edgeStyle=none;rounded=0;orthogonalLoop=1;jettySize=auto;html=1;entryX=0.037;entryY=0.662;entryDx=0;entryDy=0;entryPerimeter=0;fontSize=15;" edge="1" parent="1" source="qPi3jKJnH22krAegCtyx-33" target="qPi3jKJnH22krAegCtyx-53">
          <mxGeometry relative="1" as="geometry"/>
        </mxCell>
        <mxCell id="qPi3jKJnH22krAegCtyx-33" value="查找状态" style="rounded=1;whiteSpace=wrap;html=1;absoluteArcSize=1;arcSize=14;strokeWidth=2;fillColor=none;horizontal=1;verticalAlign=top;fontSize=15;" vertex="1" parent="1">
          <mxGeometry x="1256" y="1716.5" width="176" height="78" as="geometry"/>
        </mxCell>
        <mxCell id="qPi3jKJnH22krAegCtyx-34" value="entry/查找单词&lt;br style=&quot;font-size: 15px;&quot;&gt;exit/返回单词内容" style="text;html=1;strokeColor=none;fillColor=none;align=center;verticalAlign=middle;whiteSpace=wrap;rounded=0;fontSize=15;" vertex="1" parent="1">
          <mxGeometry x="1270.5" y="1739" width="147" height="59" as="geometry"/>
        </mxCell>
        <mxCell id="qPi3jKJnH22krAegCtyx-35" value="" style="line;strokeWidth=1;fillColor=none;align=left;verticalAlign=middle;spacingTop=-1;spacingLeft=3;spacingRight=3;rotatable=0;labelPosition=right;points=[];portConstraint=eastwest;fontSize=15;" vertex="1" parent="1">
          <mxGeometry x="1293" y="1741" width="105" height="8" as="geometry"/>
        </mxCell>
        <mxCell id="qPi3jKJnH22krAegCtyx-36" value="entry/查找单词&lt;br&gt;exit/返回单词内存" style="text;html=1;strokeColor=none;fillColor=none;align=center;verticalAlign=middle;whiteSpace=wrap;rounded=0;" vertex="1" parent="1">
          <mxGeometry x="948.5" y="1953" width="107" height="59" as="geometry"/>
        </mxCell>
        <mxCell id="qPi3jKJnH22krAegCtyx-37" value="" style="line;strokeWidth=1;fillColor=none;align=left;verticalAlign=middle;spacingTop=-1;spacingLeft=3;spacingRight=3;rotatable=0;labelPosition=right;points=[];portConstraint=eastwest;fontSize=15;" vertex="1" parent="1">
          <mxGeometry x="1276" y="1576.5" width="105" height="8" as="geometry"/>
        </mxCell>
        <mxCell id="qPi3jKJnH22krAegCtyx-38" value="" style="line;strokeWidth=1;fillColor=none;align=left;verticalAlign=middle;spacingTop=-1;spacingLeft=3;spacingRight=3;rotatable=0;labelPosition=right;points=[];portConstraint=eastwest;fontSize=15;" vertex="1" parent="1">
          <mxGeometry x="1724.5" y="1660" width="105" height="8" as="geometry"/>
        </mxCell>
        <mxCell id="qPi3jKJnH22krAegCtyx-39" value="" style="line;strokeWidth=1;fillColor=none;align=left;verticalAlign=middle;spacingTop=-1;spacingLeft=3;spacingRight=3;rotatable=0;labelPosition=right;points=[];portConstraint=eastwest;fontSize=15;" vertex="1" parent="1">
          <mxGeometry x="933" y="1663" width="105" height="8" as="geometry"/>
        </mxCell>
        <mxCell id="qPi3jKJnH22krAegCtyx-40" value="" style="line;strokeWidth=1;fillColor=none;align=left;verticalAlign=middle;spacingTop=-1;spacingLeft=3;spacingRight=3;rotatable=0;labelPosition=right;points=[];portConstraint=eastwest;" vertex="1" parent="1">
          <mxGeometry x="720" y="1862.5" width="105" height="8" as="geometry"/>
        </mxCell>
        <mxCell id="qPi3jKJnH22krAegCtyx-41" value="" style="line;strokeWidth=1;fillColor=none;align=left;verticalAlign=middle;spacingTop=-1;spacingLeft=3;spacingRight=3;rotatable=0;labelPosition=right;points=[];portConstraint=eastwest;" vertex="1" parent="1">
          <mxGeometry x="730" y="1872.5" width="105" height="8" as="geometry"/>
        </mxCell>
        <mxCell id="qPi3jKJnH22krAegCtyx-42" value="" style="line;strokeWidth=1;fillColor=none;align=left;verticalAlign=middle;spacingTop=-1;spacingLeft=3;spacingRight=3;rotatable=0;labelPosition=right;points=[];portConstraint=eastwest;" vertex="1" parent="1">
          <mxGeometry x="740" y="1882.5" width="105" height="8" as="geometry"/>
        </mxCell>
        <mxCell id="qPi3jKJnH22krAegCtyx-43" value="" style="line;strokeWidth=1;fillColor=none;align=left;verticalAlign=middle;spacingTop=-1;spacingLeft=3;spacingRight=3;rotatable=0;labelPosition=right;points=[];portConstraint=eastwest;" vertex="1" parent="1">
          <mxGeometry x="750" y="1892.5" width="105" height="8" as="geometry"/>
        </mxCell>
        <mxCell id="qPi3jKJnH22krAegCtyx-44" value="" style="line;strokeWidth=1;fillColor=none;align=left;verticalAlign=middle;spacingTop=-1;spacingLeft=3;spacingRight=3;rotatable=0;labelPosition=right;points=[];portConstraint=eastwest;" vertex="1" parent="1">
          <mxGeometry x="760" y="1902.5" width="105" height="8" as="geometry"/>
        </mxCell>
        <mxCell id="qPi3jKJnH22krAegCtyx-45" value="" style="line;strokeWidth=1;fillColor=none;align=left;verticalAlign=middle;spacingTop=-1;spacingLeft=3;spacingRight=3;rotatable=0;labelPosition=right;points=[];portConstraint=eastwest;" vertex="1" parent="1">
          <mxGeometry x="770" y="1912.5" width="105" height="8" as="geometry"/>
        </mxCell>
        <mxCell id="qPi3jKJnH22krAegCtyx-46" value="" style="line;strokeWidth=1;fillColor=none;align=left;verticalAlign=middle;spacingTop=-1;spacingLeft=3;spacingRight=3;rotatable=0;labelPosition=right;points=[];portConstraint=eastwest;" vertex="1" parent="1">
          <mxGeometry x="710" y="2073.5" width="105" height="8" as="geometry"/>
        </mxCell>
        <mxCell id="qPi3jKJnH22krAegCtyx-47" value="entry/查找单词&lt;br&gt;exit/返回单词内存" style="text;html=1;strokeColor=none;fillColor=none;align=center;verticalAlign=middle;whiteSpace=wrap;rounded=0;" vertex="1" parent="1">
          <mxGeometry x="958.5" y="1963" width="107" height="59" as="geometry"/>
        </mxCell>
        <mxCell id="qPi3jKJnH22krAegCtyx-48" value="entry/显示正常页面" style="text;html=1;strokeColor=none;fillColor=none;align=center;verticalAlign=middle;whiteSpace=wrap;rounded=0;fontSize=15;" vertex="1" parent="1">
          <mxGeometry x="933.5" y="1659.5" width="107" height="59" as="geometry"/>
        </mxCell>
        <mxCell id="qPi3jKJnH22krAegCtyx-69" style="edgeStyle=orthogonalEdgeStyle;rounded=0;orthogonalLoop=1;jettySize=auto;html=1;exitX=0.5;exitY=1;exitDx=0;exitDy=0;entryX=0.5;entryY=1;entryDx=0;entryDy=0;fontSize=15;" edge="1" parent="1" source="qPi3jKJnH22krAegCtyx-49" target="qPi3jKJnH22krAegCtyx-48">
          <mxGeometry relative="1" as="geometry">
            <Array as="points">
              <mxPoint x="1777" y="1821"/>
              <mxPoint x="987" y="1821"/>
            </Array>
          </mxGeometry>
        </mxCell>
        <mxCell id="qPi3jKJnH22krAegCtyx-70" value="组合完成" style="text;html=1;align=center;verticalAlign=middle;resizable=0;points=[];;labelBackgroundColor=#ffffff;fontSize=15;" vertex="1" connectable="0" parent="qPi3jKJnH22krAegCtyx-69">
          <mxGeometry x="-0.2632" y="2" relative="1" as="geometry">
            <mxPoint x="-133" y="1" as="offset"/>
          </mxGeometry>
        </mxCell>
        <mxCell id="qPi3jKJnH22krAegCtyx-49" value="entry/组合两个单词内容&lt;br style=&quot;font-size: 15px;&quot;&gt;exit/返回组合页面" style="text;html=1;strokeColor=none;fillColor=none;align=center;verticalAlign=middle;whiteSpace=wrap;rounded=0;fontSize=15;" vertex="1" parent="1">
          <mxGeometry x="1692" y="1664" width="170" height="59" as="geometry"/>
        </mxCell>
        <mxCell id="qPi3jKJnH22krAegCtyx-50" value="entry/缩放页面&lt;br style=&quot;font-size: 15px;&quot;&gt;exit/显示缩放页面" style="text;html=1;strokeColor=none;fillColor=none;align=center;verticalAlign=middle;whiteSpace=wrap;rounded=0;fontSize=15;" vertex="1" parent="1">
          <mxGeometry x="1265" y="1583" width="122" height="59" as="geometry"/>
        </mxCell>
        <mxCell id="qPi3jKJnH22krAegCtyx-68" style="edgeStyle=none;rounded=0;orthogonalLoop=1;jettySize=auto;html=1;entryX=0;entryY=0.5;entryDx=0;entryDy=0;fontSize=15;" edge="1" parent="1">
          <mxGeometry relative="1" as="geometry">
            <mxPoint x="1535.5" y="1670.5" as="sourcePoint"/>
            <mxPoint x="1686" y="1670.5" as="targetPoint"/>
          </mxGeometry>
        </mxCell>
        <mxCell id="qPi3jKJnH22krAegCtyx-71" value="查询完成" style="text;html=1;align=center;verticalAlign=middle;resizable=0;points=[];;labelBackgroundColor=#ffffff;fontSize=15;" vertex="1" connectable="0" parent="qPi3jKJnH22krAegCtyx-68">
          <mxGeometry x="-0.3547" relative="1" as="geometry">
            <mxPoint x="20.5" y="-23" as="offset"/>
          </mxGeometry>
        </mxCell>
        <mxCell id="qPi3jKJnH22krAegCtyx-53" value="" style="html=1;points=[];perimeter=orthogonalPerimeter;fillColor=#000000;fontSize=15;" vertex="1" parent="1">
          <mxGeometry x="1525.5" y="1634" width="10" height="80" as="geometry"/>
        </mxCell>
        <mxCell id="qPi3jKJnH22krAegCtyx-56" value="" style="endArrow=classic;html=1;" edge="1" parent="1">
          <mxGeometry width="50" height="50" relative="1" as="geometry">
            <mxPoint x="690" y="1905" as="sourcePoint"/>
            <mxPoint x="740" y="1855" as="targetPoint"/>
          </mxGeometry>
        </mxCell>
        <mxCell id="qPi3jKJnH22krAegCtyx-72" value="" style="ellipse;html=1;shape=endState;fillColor=#000000;strokeColor=#ff0000;" vertex="1" parent="1">
          <mxGeometry x="933.5" y="1809" width="30" height="30" as="geometry"/>
        </mxCell>
        <mxCell id="qPi3jKJnH22krAegCtyx-73" style="edgeStyle=none;rounded=0;orthogonalLoop=1;jettySize=auto;html=1;exitX=0.5;exitY=1;exitDx=0;exitDy=0;" edge="1" parent="1" target="qPi3jKJnH22krAegCtyx-72">
          <mxGeometry relative="1" as="geometry">
            <mxPoint x="948" y="1715" as="sourcePoint"/>
            <mxPoint x="948" y="1775" as="targetPoint"/>
          </mxGeometry>
        </mxCell>
        <mxCell id="qPi3jKJnH22krAegCtyx-75" value="点击退出" style="text;html=1;align=center;verticalAlign=middle;resizable=0;points=[];;labelBackgroundColor=#ffffff;fontSize=15;" vertex="1" connectable="0" parent="qPi3jKJnH22krAegCtyx-73">
          <mxGeometry x="0.4523" y="-1" relative="1" as="geometry">
            <mxPoint x="-9.5" y="-19" as="offset"/>
          </mxGeometry>
        </mxCell>
        <mxCell id="qPi3jKJnH22krAegCtyx-81" style="edgeStyle=none;rounded=0;orthogonalLoop=1;jettySize=auto;html=1;exitX=0;exitY=0.5;exitDx=0;exitDy=0;entryX=1;entryY=0.5;entryDx=0;entryDy=0;fontSize=15;fontColor=none;" edge="1" parent="1" source="qPi3jKJnH22krAegCtyx-76" target="qPi3jKJnH22krAegCtyx-23">
          <mxGeometry relative="1" as="geometry"/>
        </mxCell>
        <mxCell id="qPi3jKJnH22krAegCtyx-76" value="" style="ellipse;html=1;shape=startState;fillColor=#000000;strokeColor=#ff0000;fontSize=15;" vertex="1" parent="1">
          <mxGeometry x="1108" y="2101.5" width="26" height="30" as="geometry"/>
        </mxCell>
        <mxCell id="qPi3jKJnH22krAegCtyx-88" style="edgeStyle=none;rounded=0;orthogonalLoop=1;jettySize=auto;html=1;exitX=0.5;exitY=1;exitDx=0;exitDy=0;fontSize=15;fontColor=none;" edge="1" parent="1" source="qPi3jKJnH22krAegCtyx-83" target="qPi3jKJnH22krAegCtyx-87">
          <mxGeometry relative="1" as="geometry"/>
        </mxCell>
        <mxCell id="qPi3jKJnH22krAegCtyx-89" value="拍摄（）" style="text;html=1;align=center;verticalAlign=middle;resizable=0;points=[];;labelBackgroundColor=#ffffff;fontSize=15;fontColor=none;" vertex="1" connectable="0" parent="qPi3jKJnH22krAegCtyx-88">
          <mxGeometry x="-0.3477" y="1" relative="1" as="geometry">
            <mxPoint x="12" y="0.5" as="offset"/>
          </mxGeometry>
        </mxCell>
        <mxCell id="qPi3jKJnH22krAegCtyx-83" value="显示拍摄页面" style="rounded=1;whiteSpace=wrap;html=1;absoluteArcSize=1;arcSize=14;strokeWidth=2;fillColor=none;fontSize=15;" vertex="1" parent="1">
          <mxGeometry x="941.5" y="2175.5" width="114" height="49" as="geometry"/>
        </mxCell>
        <mxCell id="qPi3jKJnH22krAegCtyx-100" style="edgeStyle=none;rounded=0;orthogonalLoop=1;jettySize=auto;html=1;endArrow=classic;endFill=1;fontSize=15;fontColor=none;" edge="1" parent="1" source="qPi3jKJnH22krAegCtyx-87" target="qPi3jKJnH22krAegCtyx-99">
          <mxGeometry relative="1" as="geometry"/>
        </mxCell>
        <mxCell id="qPi3jKJnH22krAegCtyx-103" value="停止拍摄（）[用户点击拍摄完毕]" style="text;html=1;align=center;verticalAlign=middle;resizable=0;points=[];;labelBackgroundColor=#ffffff;fontSize=15;fontColor=none;" vertex="1" connectable="0" parent="qPi3jKJnH22krAegCtyx-100">
          <mxGeometry x="-0.5393" y="-1" relative="1" as="geometry">
            <mxPoint x="76" y="5.5" as="offset"/>
          </mxGeometry>
        </mxCell>
        <mxCell id="qPi3jKJnH22krAegCtyx-87" value="拍摄中" style="rounded=1;whiteSpace=wrap;html=1;absoluteArcSize=1;arcSize=14;strokeWidth=2;fillColor=none;fontSize=15;" vertex="1" parent="1">
          <mxGeometry x="943" y="2259" width="114" height="49" as="geometry"/>
        </mxCell>
        <mxCell id="qPi3jKJnH22krAegCtyx-90" value="" style="endArrow=classic;dashed=1;html=1;fontSize=15;fontColor=none;entryX=0.004;entryY=0.526;entryDx=0;entryDy=0;entryPerimeter=0;endFill=1;" edge="1" parent="1" target="qPi3jKJnH22krAegCtyx-84">
          <mxGeometry width="50" height="50" relative="1" as="geometry">
            <mxPoint x="1000" y="2246" as="sourcePoint"/>
            <mxPoint x="1137" y="2246" as="targetPoint"/>
          </mxGeometry>
        </mxCell>
        <mxCell id="qPi3jKJnH22krAegCtyx-91" value="拍摄（）" style="text;html=1;align=center;verticalAlign=middle;resizable=0;points=[];;labelBackgroundColor=#ffffff;fontSize=15;fontColor=none;" vertex="1" connectable="0" parent="qPi3jKJnH22krAegCtyx-90">
          <mxGeometry x="0.4664" y="-1" relative="1" as="geometry">
            <mxPoint x="3" y="-18.5" as="offset"/>
          </mxGeometry>
        </mxCell>
        <mxCell id="qPi3jKJnH22krAegCtyx-92" value="Text" style="text;html=1;strokeColor=none;fillColor=none;align=center;verticalAlign=middle;whiteSpace=wrap;rounded=0;labelBackgroundColor=none;fontSize=15;fontColor=none;" vertex="1" parent="1">
          <mxGeometry x="841" y="2613" width="40" height="20" as="geometry"/>
        </mxCell>
        <mxCell id="qPi3jKJnH22krAegCtyx-93" value="AR识别" style="text;html=1;strokeColor=none;fillColor=none;align=center;verticalAlign=middle;whiteSpace=wrap;rounded=0;labelBackgroundColor=none;fontSize=15;fontColor=none;" vertex="1" parent="1">
          <mxGeometry x="879" y="2061.5" width="72" height="20" as="geometry"/>
        </mxCell>
        <mxCell id="qPi3jKJnH22krAegCtyx-94" value="系统摄像" style="text;html=1;strokeColor=none;fillColor=none;align=center;verticalAlign=middle;whiteSpace=wrap;rounded=0;labelBackgroundColor=none;fontSize=15;fontColor=none;" vertex="1" parent="1">
          <mxGeometry x="1242" y="2062" width="68" height="20" as="geometry"/>
        </mxCell>
        <mxCell id="qPi3jKJnH22krAegCtyx-98" style="edgeStyle=none;rounded=0;orthogonalLoop=1;jettySize=auto;html=1;exitX=0;exitY=0.5;exitDx=0;exitDy=0;entryX=1;entryY=0.5;entryDx=0;entryDy=0;endArrow=classic;endFill=1;fontSize=15;fontColor=none;" edge="1" parent="1" source="qPi3jKJnH22krAegCtyx-97" target="qPi3jKJnH22krAegCtyx-22">
          <mxGeometry relative="1" as="geometry"/>
        </mxCell>
        <mxCell id="qPi3jKJnH22krAegCtyx-97" value="" style="ellipse;html=1;shape=startState;fillColor=#000000;strokeColor=#ff0000;fontSize=15;" vertex="1" parent="1">
          <mxGeometry x="1419" y="2104.5" width="26" height="30" as="geometry"/>
        </mxCell>
        <mxCell id="qPi3jKJnH22krAegCtyx-116" style="edgeStyle=orthogonalEdgeStyle;rounded=0;orthogonalLoop=1;jettySize=auto;html=1;exitX=0.5;exitY=1;exitDx=0;exitDy=0;entryX=0.5;entryY=0;entryDx=0;entryDy=0;endArrow=classic;endFill=1;fontSize=15;fontColor=none;" edge="1" parent="1" source="qPi3jKJnH22krAegCtyx-99" target="qPi3jKJnH22krAegCtyx-115">
          <mxGeometry relative="1" as="geometry"/>
        </mxCell>
        <mxCell id="qPi3jKJnH22krAegCtyx-121" value="识别文字（）" style="text;html=1;align=center;verticalAlign=middle;resizable=0;points=[];;labelBackgroundColor=#ffffff;fontSize=15;fontColor=none;" vertex="1" connectable="0" parent="qPi3jKJnH22krAegCtyx-116">
          <mxGeometry x="0.2145" y="2" relative="1" as="geometry">
            <mxPoint x="7" y="-7.5" as="offset"/>
          </mxGeometry>
        </mxCell>
        <mxCell id="qPi3jKJnH22krAegCtyx-99" value="获取照片" style="rounded=1;whiteSpace=wrap;html=1;absoluteArcSize=1;arcSize=14;strokeWidth=2;fillColor=none;fontSize=15;" vertex="1" parent="1">
          <mxGeometry x="943" y="2344" width="114" height="49" as="geometry"/>
        </mxCell>
        <mxCell id="qPi3jKJnH22krAegCtyx-101" value="" style="endArrow=classic;dashed=1;html=1;fontSize=15;fontColor=none;entryX=0.004;entryY=0.377;entryDx=0;entryDy=0;entryPerimeter=0;endFill=1;" edge="1" parent="1">
          <mxGeometry width="50" height="50" relative="1" as="geometry">
            <mxPoint x="999" y="2331" as="sourcePoint"/>
            <mxPoint x="1233.4279999999999" y="2331.663" as="targetPoint"/>
          </mxGeometry>
        </mxCell>
        <mxCell id="qPi3jKJnH22krAegCtyx-102" value="停止拍摄（）" style="text;html=1;align=center;verticalAlign=middle;resizable=0;points=[];;labelBackgroundColor=#ffffff;fontSize=15;fontColor=none;" vertex="1" connectable="0" parent="qPi3jKJnH22krAegCtyx-101">
          <mxGeometry x="0.4664" y="-1" relative="1" as="geometry">
            <mxPoint x="3" y="18.5" as="offset"/>
          </mxGeometry>
        </mxCell>
        <mxCell id="qPi3jKJnH22krAegCtyx-107" style="edgeStyle=none;rounded=0;orthogonalLoop=1;jettySize=auto;html=1;exitX=0.5;exitY=1;exitDx=0;exitDy=0;entryX=0.5;entryY=0;entryDx=0;entryDy=0;endArrow=classic;endFill=1;fontSize=15;fontColor=none;" edge="1" parent="1" source="qPi3jKJnH22krAegCtyx-104" target="qPi3jKJnH22krAegCtyx-106">
          <mxGeometry relative="1" as="geometry"/>
        </mxCell>
        <mxCell id="qPi3jKJnH22krAegCtyx-104" value="拍摄" style="rounded=1;whiteSpace=wrap;html=1;absoluteArcSize=1;arcSize=14;strokeWidth=2;fillColor=none;fontSize=15;" vertex="1" parent="1">
          <mxGeometry x="1281" y="2184" width="95" height="48" as="geometry"/>
        </mxCell>
        <mxCell id="qPi3jKJnH22krAegCtyx-112" style="edgeStyle=orthogonalEdgeStyle;rounded=0;orthogonalLoop=1;jettySize=auto;html=1;exitX=0.5;exitY=1;exitDx=0;exitDy=0;entryX=0.5;entryY=0;entryDx=0;entryDy=0;endArrow=classic;endFill=1;fontSize=15;fontColor=none;" edge="1" parent="1" source="qPi3jKJnH22krAegCtyx-106" target="qPi3jKJnH22krAegCtyx-111">
          <mxGeometry relative="1" as="geometry"/>
        </mxCell>
        <mxCell id="qPi3jKJnH22krAegCtyx-106" value="显示拍的照片" style="rounded=1;whiteSpace=wrap;html=1;absoluteArcSize=1;arcSize=14;strokeWidth=2;fillColor=none;fontSize=15;" vertex="1" parent="1">
          <mxGeometry x="1281" y="2267.5" width="95" height="48" as="geometry"/>
        </mxCell>
        <mxCell id="qPi3jKJnH22krAegCtyx-108" style="edgeStyle=orthogonalEdgeStyle;rounded=0;orthogonalLoop=1;jettySize=auto;html=1;endArrow=classic;endFill=1;fontSize=15;fontColor=none;entryX=1;entryY=0.5;entryDx=0;entryDy=0;exitX=1;exitY=0.5;exitDx=0;exitDy=0;" edge="1" parent="1" source="qPi3jKJnH22krAegCtyx-106" target="qPi3jKJnH22krAegCtyx-104">
          <mxGeometry relative="1" as="geometry">
            <Array as="points">
              <mxPoint x="1427" y="2291"/>
              <mxPoint x="1427" y="2208"/>
            </Array>
          </mxGeometry>
        </mxCell>
        <mxCell id="qPi3jKJnH22krAegCtyx-109" value="[用户重拍]" style="text;html=1;align=center;verticalAlign=middle;resizable=0;points=[];;labelBackgroundColor=#ffffff;fontSize=15;fontColor=none;" vertex="1" connectable="0" parent="qPi3jKJnH22krAegCtyx-108">
          <mxGeometry x="-0.4536" y="28" relative="1" as="geometry">
            <mxPoint x="20" y="-41" as="offset"/>
          </mxGeometry>
        </mxCell>
        <mxCell id="qPi3jKJnH22krAegCtyx-114" style="edgeStyle=orthogonalEdgeStyle;rounded=0;orthogonalLoop=1;jettySize=auto;html=1;exitX=1;exitY=0.5;exitDx=0;exitDy=0;entryX=0;entryY=0.5;entryDx=0;entryDy=0;endArrow=classic;endFill=1;fontSize=15;fontColor=none;" edge="1" parent="1" source="qPi3jKJnH22krAegCtyx-111" target="qPi3jKJnH22krAegCtyx-113">
          <mxGeometry relative="1" as="geometry"/>
        </mxCell>
        <mxCell id="qPi3jKJnH22krAegCtyx-111" value="关闭" style="rounded=1;whiteSpace=wrap;html=1;absoluteArcSize=1;arcSize=14;strokeWidth=2;fillColor=none;fontSize=15;" vertex="1" parent="1">
          <mxGeometry x="1281" y="2345" width="95" height="48" as="geometry"/>
        </mxCell>
        <mxCell id="qPi3jKJnH22krAegCtyx-113" value="" style="ellipse;html=1;shape=endState;fillColor=#000000;strokeColor=#ff0000;" vertex="1" parent="1">
          <mxGeometry x="1415" y="2354" width="30" height="30" as="geometry"/>
        </mxCell>
        <mxCell id="qPi3jKJnH22krAegCtyx-119" style="edgeStyle=orthogonalEdgeStyle;rounded=0;orthogonalLoop=1;jettySize=auto;html=1;exitX=0.5;exitY=1;exitDx=0;exitDy=0;entryX=0.5;entryY=0;entryDx=0;entryDy=0;endArrow=classic;endFill=1;fontSize=15;fontColor=none;" edge="1" parent="1" source="qPi3jKJnH22krAegCtyx-115" target="qPi3jKJnH22krAegCtyx-117">
          <mxGeometry relative="1" as="geometry"/>
        </mxCell>
        <mxCell id="qPi3jKJnH22krAegCtyx-122" value="显示（）" style="text;html=1;align=center;verticalAlign=middle;resizable=0;points=[];;labelBackgroundColor=#ffffff;fontSize=15;fontColor=none;" vertex="1" connectable="0" parent="qPi3jKJnH22krAegCtyx-119">
          <mxGeometry x="-0.232" relative="1" as="geometry">
            <mxPoint as="offset"/>
          </mxGeometry>
        </mxCell>
        <mxCell id="qPi3jKJnH22krAegCtyx-115" value="识别照片" style="rounded=1;whiteSpace=wrap;html=1;absoluteArcSize=1;arcSize=14;strokeWidth=2;fillColor=none;fontSize=15;" vertex="1" parent="1">
          <mxGeometry x="943" y="2425.5" width="114" height="49" as="geometry"/>
        </mxCell>
        <mxCell id="qPi3jKJnH22krAegCtyx-117" value="处理显示" style="rounded=1;whiteSpace=wrap;html=1;absoluteArcSize=1;arcSize=14;strokeWidth=2;fillColor=none;fontSize=15;" vertex="1" parent="1">
          <mxGeometry x="943" y="2507" width="114" height="49" as="geometry"/>
        </mxCell>
      </root>
    </mxGraphModel>
  </diagram>
</mxfile>
